<?xml version="1.0" encoding="UTF-8"?><svg id="a" xmlns="http://www.w3.org/2000/svg" width="4.1in" height="1.14in" viewBox="0 0 295.23 82.12"><path d="m122.47,54.19v27.43h-4.43v-11.72h-14.81v11.72h-4.43v-27.43h4.43v11.52h14.81v-11.52h4.43Z" fill="#03173e" stroke-width="0"/><path d="m143.58,73.74h-13.85c.53,3.35,2.92,4.78,5.56,4.78,1.88,0,3.88-.74,5.43-1.98l2.04,2.92c-2.29,1.96-4.88,2.65-7.72,2.65-5.62,0-9.6-3.92-9.6-9.88s3.82-9.87,9.35-9.87,8.88,4,8.88,9.85c0,.53-.04,1.06-.08,1.53Zm-4.11-3.12c-.45-2.92-2.15-4.62-4.76-4.62-2.9,0-4.53,1.88-4.98,4.62h9.74Z" fill="#03173e" stroke-width="0"/><path d="m163.22,70.43v11.19h-4.11v-2.25c-1,1.45-3,2.74-6.03,2.74-4.25,0-6.62-2.55-6.62-5.94,0-3.66,2.76-5.86,7.58-5.86h5.06c-.2-2.72-1.72-4.23-4.8-4.23-2.08,0-3.84.9-5.17,1.88l-1.68-3.23c2.37-1.74,4.9-2.37,7.39-2.37,5.43,0,8.41,3.08,8.41,8.07Zm-4.11,3.78v-.78h-4.64c-2.78,0-3.61,1.21-3.61,2.55s.92,2.37,3,2.37c2.27,0,5.25-1.2,5.25-4.13Z" fill="#03173e" stroke-width="0"/><path d="m167.53,53.4h4.11v28.21h-4.11v-28.21Z" fill="#03173e" stroke-width="0"/><path d="m191.05,80.24c-1.51,1.02-3.41,1.86-5.76,1.86-4.25,0-6.74-2.29-6.74-7.29v-8.25h-3.74v-3.72h3.74v-5.68h4.12v5.68h7.19v3.72h-7.19v8.17c0,2.53,1.33,3.51,2.98,3.51,1.27,0,2.67-.57,3.78-1.27l1.63,3.27Z" fill="#03173e" stroke-width="0"/><path d="m211.31,69.82v11.79h-4.11v-10.44c0-3.15-1.63-4.92-4.37-4.92s-4.86,1.8-4.86,4.96v10.4h-4.11v-28.21h4.11v11.68c1.53-2.17,3.82-2.72,5.72-2.72,4.47,0,7.62,3.08,7.62,7.46Z" fill="#03173e" stroke-width="0"/><path d="m214.78,67.9c0-8.19,5.94-14.22,14.36-14.22s14.36,6.03,14.36,14.22-5.94,14.22-14.36,14.22-14.36-6.03-14.36-14.22Zm24.08,0c0-5.92-4.11-9.97-9.72-9.97s-9.72,4.06-9.72,9.97,4.11,9.97,9.72,9.97,9.72-4.06,9.72-9.97Z" fill="#03173e" stroke-width="0"/><path d="m247.13,54.19h4l15.32,19.85v-19.85h4.43v27.43h-4l-15.3-19.85v19.85h-4.45v-27.43Z" fill="#03173e" stroke-width="0"/><path d="m295.23,77.46v4.15h-20v-27.43h19.75v4.15h-15.32v7.39h14.79v4.15h-14.79v7.58h15.58Z" fill="#03173e" stroke-width="0"/><path d="m10.75,55.17h8.99c3.54,0,6.4,2.87,6.4,6.4v8.99c0,5.52,4.48,10.76,10.01,10.75.34,0,.61-.29.61-.63v-22.48c0-7.54-6.11-13.65-13.65-13.65H.63c-.34,0-.63.27-.63.61-.01,5.53,5.23,10.01,10.75,10.01Z" fill="#e05929" stroke-width="0"/><path d="m10.75,26.66h8.99c3.54,0,6.4-2.87,6.4-6.4v-8.99c0-5.52,4.48-10.76,10.01-10.75.34,0,.61.29.61.63v22.48c0,7.54-6.11,13.65-13.65,13.65H.63c-.34,0-.63-.27-.63-.61-.01-5.53,5.23-10.01,10.75-10.01Z" fill="#e05929" stroke-width="0"/><path d="m70.03,55.17h-8.99c-3.54,0-6.4,2.87-6.4,6.4v8.99c0,5.52-4.48,10.76-10.01,10.75-.34,0-.61-.29-.61-.63v-22.48c0-7.54,6.11-13.65,13.65-13.65h22.48c.34,0,.63.27.63.61.01,5.53-5.23,10.01-10.75,10.01Z" fill="#e05929" stroke-width="0"/><path d="m70.03,26.66h-8.99c-3.54,0-6.4-2.87-6.4-6.4v-8.99c0-5.52-4.48-10.76-10.01-10.75-.34,0-.61.29-.61.63v22.48c0,7.54,6.11,13.65,13.65,13.65h22.48c.34,0,.63-.27.63-.61.01-5.53-5.23-10.01-10.75-10.01Z" fill="#e05929" stroke-width="0"/><path d="m41.98,34.31c1.34,2.01,3.01,3.69,5.03,5.03,1.55,1,1.55,2.16,0,3.16-2.01,1.34-3.69,3.01-5.03,5.03-1,1.56-2.17,1.56-3.16,0-1.34-2.01-3.01-3.69-5.03-5.03-1.56-1-1.56-2.16,0-3.16,2.01-1.34,3.69-3.01,5.03-5.03,1-1.56,2.16-1.56,3.16,0Z" fill="#e05929" stroke-width="0"/><path d="m108.26,18.99h19.74c.23,0,.41-.18.41-.41V1.7c0-.47.38-.86.86-.86h7.26c.47,0,.86.38.86.86v43.35c0,.47-.38.86-.86.86h-7.26c-.47,0-.86-.38-.86-.86v-17.27c0-.23-.18-.41-.41-.41h-19.74c-.23,0-.41.18-.41.41v17.27c0,.47-.38.86-.86.86h-7.26c-.47,0-.86-.38-.86-.86V1.7c0-.47.38-.86.86-.86h7.32c.44,0,.8.36.8.8v16.94c0,.23.18.41.41.41Z" fill="#03173e" stroke-width="0"/><path d="m184.67,13.54l-6.03,3.28c-.36.23-.84.14-1.09-.21s-.91-1.55-2.6-3.59c-2.41-2.92-5.94-4.39-10.06-4.39-7.93,0-13.8,5.99-13.8,14.74.03,9.05,6.09,14.74,13.8,14.74,3.87,0,7.13-1.49,9.67-4.03,1.08-1.08,2.4-3.19,2.85-3.85.25-.37.77-.43,1.13-.17l6.35,3.02c.37.28.43.79.19,1.19-.3.49-1.79,3.32-3.11,4.87-4,4.69-9.94,7.6-17.01,7.6-13.46,0-22.95-9.82-22.95-23.37S151.49,0,164.95,0c7.37,0,13.83,3.16,17.61,8.54,1.87,2.67,2.2,3.53,2.37,3.81.25.4.14.94-.26,1.19Z" fill="#03173e" stroke-width="0"/><path d="m230.88,44.82L213.95,1.34c-.12-.3-.41-.5-.74-.5h-9.86c-.33,0-.62.2-.74.5l-16.93,43.48c-.2.52.18,1.08.74,1.08h7.66c.33,0,.63-.2.74-.51l3.63-9.71c.06-.16.22-.27.39-.27h6.83c4.08-.22,6.85-3.63,6.84-7.8,0-.26-.23-.48-.49-.48h-9.77c-.29,0-.49-.29-.39-.56l5.93-15.81c.14-.36.65-.36.78,0l12.94,34.62c.12.31.41.51.74.51h7.89c.56,0,.94-.56.74-1.08Z" fill="#03173e" stroke-width="0"/></svg>