<svg xmlns="http://www.w3.org/2000/svg" width="393.54071" height="100" viewBox="0 0 393.54071 100"><path fill="#cfb87c" d="M 11.65795,0 0,11.64401 v 40.19538 l 11.65795,11.63565 h 12.7864 v 9.77997 L 36.19423,84.90179 H 70.17056 L 81.95109,73.26614 V 42.1263 h 5.99616 V 21.3989 H 63.54191 V 11.64401 L 51.92298,0 Z"/><path d="M 12.15587,1.20843 1.20843,12.14751 v 39.18393 l 10.94744,10.9335 H 25.65278 V 72.75821 L 36.68659,83.69449 H 69.67654 L 80.74378,72.75821 V 40.92455 h 5.99895 V 22.60733 H 62.33183 V 12.14751 L 51.42341,1.20843 Z"/><path fill="#fff" d="m 13.40747,59.24512 h 15.26622 v 12.25144 l 9.25893,9.17812 H 68.4344 l 9.28679,-9.17812 v -33.5946 h 6.00172 V 25.62545 H 65.31094 V 68.41211 H 40.94742 v -9.16699 h 9.21991 l 9.14746,-9.16698 V 37.90196 H 47.04387 v 9.09731 H 40.94742 V 25.62545 h -18.3646 v 12.27651 h 6.09087 v 9.09731 H 16.46963 V 16.38324 h 30.57424 v 9.24221 H 59.31479 V 13.39909 L 50.16733,4.22655 H 13.40747 l -9.1837,9.16977 v 36.68182 z"/><path fill="#cfb87c" d="m 39.43221,57.73439 h 10.10874 l 8.26144,-8.27535 V 39.41436 H 48.5574 V 48.5089 H 39.43221 V 27.14066 H 24.09355 v 9.25613 h 6.09089 V 48.5089 H 14.96558 V 14.87531 H 48.5574 v 9.24219 h 9.24499 V 14.02269 L 49.54095,5.73618 H 14.03216 l -8.29485,8.28651 v 35.43635 l 8.29207,8.27535 h 16.15506 v 13.13468 l 8.37286,8.30043 h 29.2563 l 8.40074,-8.30879 V 36.39679 h 5.99617 V 27.14066 H 66.82169 V 69.91895 H 39.43221 Z"/><path d="M 110.563 38.8148 C 110.457 44.0168 114.207 45.605 118.805 45.605 C 121.46 45.605 125.489 44.1562 125.489 40.4782 C 125.489 37.6139 122.628 36.4799 120.293 35.9115 L 114.667 34.535 C 111.694 33.7911 108.969 32.3756 108.969 28.4525 C 108.969 25.9727 110.563 21.3391 117.674 21.3391 C 122.661 21.3391 127.047 24.0306 127.013 29.1937 L 124.606 29.1937 C 124.464 25.3346 121.282 23.3926 117.71 23.3926 C 114.419 23.3926 111.377 24.6659 111.377 28.4163 C 111.377 30.7847 113.146 31.7766 115.197 32.2725 L 121.352 33.7911 C 124.924 34.744 127.897 36.3015 127.897 40.442 C 127.897 42.1751 127.189 47.6613 118.239 47.6613 C 112.263 47.6613 107.874 44.9698 108.158 38.8148 Z"/><path d="M 143.914 34.6058 C 143.315 31.8808 141.652 30.2201 138.748 30.2201 C 134.468 30.2201 132.348 34.1071 132.348 38.0023 C 132.348 41.8948 134.468 45.7845 138.748 45.7845 C 141.509 45.7845 143.775 43.6251 144.056 40.5824 L 146.285 40.5824 C 145.681 44.9681 142.819 47.6597 138.748 47.6597 C 133.162 47.6597 130.119 43.2378 130.119 38.0023 C 130.119 32.7668 133.162 28.3422 138.748 28.3422 C 142.641 28.3422 145.65 30.4319 146.143 34.6058 Z"/><path d="M 149.187 21.8703 L 151.413 21.8703 L 151.413 32.0208 L 151.486 32.0208 C 152.299 29.828 154.74 28.3457 157.323 28.3457 C 162.453 28.3457 164.007 31.0317 164.007 35.3839 L 164.007 47.1282 L 161.778 47.1282 L 161.778 35.7378 C 161.778 32.5892 160.753 30.2181 157.145 30.2181 C 153.606 30.2181 151.486 32.9069 151.413 36.4817 L 151.413 47.1282 L 149.187 47.1282 Z"/><path d="M 169.24 38.0017 C 169.24 41.8942 171.363 45.7839 175.643 45.7839 C 179.923 45.7839 182.046 41.8942 182.046 38.0017 C 182.046 34.1092 179.923 30.2195 175.643 30.2195 C 171.363 30.2195 169.24 34.1092 169.24 38.0017 M 184.275 38.0017 C 184.275 43.2372 181.232 47.6591 175.643 47.6591 C 170.054 47.6591 167.011 43.2372 167.011 38.0017 C 167.011 32.7634 170.054 28.3416 175.643 28.3416 C 181.232 28.3416 184.275 32.7634 184.275 38.0017"/><path d="M 188.725 38.0017 C 188.725 41.8942 190.848 45.7839 195.128 45.7839 C 199.408 45.7839 201.531 41.8942 201.531 38.0017 C 201.531 34.1092 199.408 30.2195 195.128 30.2195 C 190.848 30.2195 188.725 34.1092 188.725 38.0017 M 203.757 38.0017 C 203.757 43.2372 200.717 47.6591 195.128 47.6591 C 189.539 47.6591 186.496 43.2372 186.496 38.0017 C 186.496 32.7634 189.539 28.3416 195.128 28.3416 C 200.717 28.3416 203.757 32.7634 203.757 38.0017"/><path d="M 206.898 21.8692 L 209.124 21.8692 L 209.124 47.1271 L 206.898 47.1271 Z"/><path d="M 224.551 38.0017 C 224.551 41.8942 226.674 45.7839 230.957 45.7839 C 235.234 45.7839 237.357 41.8942 237.357 38.0017 C 237.357 34.1092 235.234 30.2195 230.957 30.2195 C 226.674 30.2195 224.551 34.1092 224.551 38.0017 M 239.583 38.0017 C 239.583 43.2372 236.543 47.6591 230.957 47.6591 C 225.365 47.6591 222.322 43.2372 222.322 38.0017 C 222.322 32.7634 225.365 28.3416 230.957 28.3416 C 236.543 28.3416 239.583 32.7634 239.583 38.0017"/><path d="M 249.182 30.7492 L 245.574 30.7492 L 245.574 47.1271 L 243.347 47.1271 L 243.347 30.7492 L 240.232 30.7492 L 240.232 28.8768 L 243.347 28.8768 L 243.347 27.2106 C 243.311 24.0648 244.195 21.872 247.767 21.872 C 248.405 21.872 248.934 21.9055 249.642 22.0113 L 249.642 23.9227 C 249.04 23.8169 248.547 23.7444 248.015 23.7444 C 245.538 23.7444 245.61 25.3048 245.574 27.283 L 245.574 28.8768 L 249.182 28.8768 Z"/><path d="M 261.492 21.8703 L 265.031 21.8703 L 273.768 44.0131 L 282.47 21.8703 L 286.006 21.8703 L 286.006 47.1282 L 283.601 47.1282 L 283.601 25.303 L 283.532 25.303 L 274.903 47.1282 L 272.637 47.1282 L 263.969 25.303 L 263.899 25.303 L 263.899 47.1282 L 261.492 47.1282 Z"/><path d="M 303.606 36.7281 C 303.5 33.3678 301.413 30.2193 297.805 30.2193 C 294.16 30.2193 292.146 33.404 291.792 36.7281 Z M 291.792 38.6005 C 291.825 41.8577 293.525 45.7836 297.805 45.7836 C 301.059 45.7836 302.829 43.875 303.536 41.1138 L 305.763 41.1138 C 304.81 45.2542 302.402 47.6588 297.805 47.6588 C 292.004 47.6588 289.563 43.2035 289.563 38.0014 C 289.563 33.1895 292.004 28.3441 297.805 28.3441 C 303.676 28.3441 306.011 33.4737 305.835 38.6005 Z"/><path d="M 316.185 45.7839 C 320.925 45.7839 322.591 41.7855 322.591 38.0017 C 322.591 34.2179 320.925 30.2168 316.185 30.2168 C 311.941 30.2168 310.208 34.2179 310.208 38.0017 C 310.208 41.7855 311.941 45.7839 316.185 45.7839 M 324.817 47.1269 L 322.763 47.1269 L 322.763 43.6635 L 322.694 43.6635 C 321.738 46.0319 318.84 47.6563 316.185 47.6563 C 310.632 47.6563 307.977 43.1648 307.977 38.0017 C 307.977 32.8359 310.632 28.3444 316.185 28.3444 C 318.91 28.3444 321.56 29.7236 322.518 32.34 L 322.591 32.34 L 322.591 21.869 L 324.817 21.869 Z"/><path d="M 328.815 28.8767 L 331.044 28.8767 L 331.044 47.1326 L 328.815 47.1326 Z M 328.815 21.8692 L 331.044 21.8692 L 331.044 25.4412 L 328.815 25.4412 Z"/><path d="M 347.925 34.6058 C 347.323 31.8808 345.66 30.2201 342.759 30.2201 C 338.479 30.2201 336.359 34.1071 336.359 38.0023 C 336.359 41.8948 338.479 45.7845 342.759 45.7845 C 345.52 45.7845 347.783 43.6251 348.067 40.5824 L 350.296 40.5824 C 349.692 44.9681 346.827 47.6597 342.759 47.6597 C 337.17 47.6597 334.13 43.2378 334.13 38.0023 C 334.13 32.7668 337.17 28.3422 342.759 28.3422 C 346.652 28.3422 349.658 30.4319 350.154 34.6058 Z"/><path d="M 353.212 28.8767 L 355.439 28.8767 L 355.439 47.1326 L 353.212 47.1326 Z M 353.212 21.8692 L 355.439 21.8692 L 355.439 25.4412 L 353.212 25.4412 Z"/><path d="M 359.372 28.8746 L 361.601 28.8746 L 361.601 32.0231 L 361.673 32.0231 C 362.484 29.8303 364.925 28.3424 367.508 28.3424 C 372.638 28.3424 374.195 31.0312 374.195 35.3806 L 374.195 47.1305 L 371.966 47.1305 L 371.966 35.7373 C 371.966 32.5888 370.938 30.2176 367.33 30.2176 C 363.794 30.2176 361.673 32.9092 361.601 36.4812 L 361.601 47.1305 L 359.372 47.1305 Z"/><path d="M 391.302 36.7281 C 391.196 33.3678 389.109 30.2193 385.501 30.2193 C 381.856 30.2193 379.842 33.404 379.488 36.7281 Z M 379.488 38.6005 C 379.521 41.8577 381.218 45.7836 385.501 45.7836 C 388.755 45.7836 390.525 43.875 391.23 41.1138 L 393.461 41.1138 C 392.506 45.2542 390.098 47.6588 385.501 47.6588 C 379.7 47.6588 377.259 43.2035 377.259 38.0014 C 377.259 33.1895 379.7 28.3441 385.501 28.3441 C 391.372 28.3441 393.709 33.4737 393.531 38.6005 Z"/><path d="M 109.137 68.1165 L 110.26 68.1165 L 110.26 75.4166 C 110.243 78.1584 111.547 79.2004 113.712 79.2004 C 115.891 79.2004 117.198 78.1584 117.181 75.4166 L 117.181 68.1165 L 118.304 68.1165 L 118.304 75.6674 C 118.304 78.0943 116.997 80.1589 113.712 80.1589 C 110.441 80.1589 109.137 78.0943 109.137 75.6674 Z"/><path d="M 121.363 68.1165 L 122.617 68.1165 L 129.491 78.0943 L 129.521 78.0943 L 129.521 68.1165 L 130.644 68.1165 L 130.644 79.911 L 129.39 79.911 L 122.519 69.9304 L 122.486 69.9304 L 122.486 79.911 L 121.363 79.911 Z"/><path d="M 133.827 68.1163 L 134.95 68.1163 L 134.95 79.9108 L 133.827 79.9108 Z"/><path d="M 136.88 68.1165 L 138.086 68.1165 L 141.92 78.671 L 141.951 78.671 L 145.749 68.1165 L 146.939 68.1165 L 142.561 79.911 L 141.257 79.911 Z"/><path d="M 148.825 68.1165 L 156.967 68.1165 L 156.967 69.0722 L 149.948 69.0722 L 149.948 73.3353 L 156.521 73.3353 L 156.521 74.2937 L 149.948 74.2937 L 149.948 78.9525 L 157.05 78.9525 L 157.05 79.911 L 148.825 79.911 Z"/><path d="M 160.323 73.7156 L 164.516 73.7156 C 165.887 73.7156 167.06 72.8574 167.06 71.4197 C 167.06 69.9819 166.202 69.0736 164.516 69.0736 L 160.323 69.0736 Z M 159.2 68.1179 L 164.6 68.1179 C 166.55 68.1179 168.186 69.0569 168.186 71.1884 C 168.186 72.6763 167.409 73.8967 165.887 74.1948 L 165.887 74.2283 C 167.425 74.4261 167.871 75.4849 167.955 76.8864 C 168.002 77.6972 168.002 79.3161 168.498 79.9096 L 167.261 79.9096 C 166.979 79.447 166.979 78.5721 166.946 78.0762 C 166.846 76.4239 166.715 74.5905 164.583 74.6741 L 160.323 74.6741 L 160.323 79.9096 L 159.2 79.9096 Z"/><path d="M 171.472 76.0279 C 171.422 78.4576 173.174 79.1987 175.323 79.1987 C 176.56 79.1987 178.443 78.5216 178.443 76.8025 C 178.443 75.4651 177.103 74.9385 176.014 74.6738 L 173.386 74.0301 C 172.001 73.6818 170.731 73.0243 170.731 71.1881 C 170.731 70.0318 171.472 67.8668 174.793 67.8668 C 177.12 67.8668 179.168 69.1234 179.151 71.5364 L 178.028 71.5364 C 177.961 69.7336 176.476 68.8253 174.807 68.8253 C 173.269 68.8253 171.854 69.4216 171.854 71.1714 C 171.854 72.2775 172.678 72.7428 173.634 72.9741 L 176.51 73.6818 C 178.179 74.1304 179.563 74.8549 179.563 76.7858 C 179.563 77.5994 179.235 80.1572 175.058 80.1572 C 172.263 80.1572 170.215 78.9034 170.349 76.0279 Z"/><path d="M 182.158 68.1163 L 183.281 68.1163 L 183.281 79.9108 L 182.158 79.9108 Z"/><path d="M 185.228 68.1165 L 194.576 68.1165 L 194.576 69.0722 L 190.463 69.0722 L 190.463 79.911 L 189.341 79.911 L 189.341 69.0722 L 185.228 69.0722 Z"/><path d="M 200.462 75.0539 L 195.82 68.116 L 197.157 68.116 L 201.039 74.0954 L 204.903 68.116 L 206.244 68.116 L 201.585 75.0539 L 201.585 79.9104 L 200.462 79.9104 Z"/><path d="M 218.44 79.1991 C 221.544 79.1991 222.867 76.5883 222.867 74.011 C 222.867 71.4364 221.544 68.8257 218.44 68.8257 C 215.319 68.8257 213.996 71.4364 213.996 74.011 C 213.996 76.5883 215.319 79.1991 218.44 79.1991 M 218.44 67.87 C 222.14 67.87 223.988 70.79 223.988 74.011 C 223.988 77.2348 222.14 80.1576 218.44 80.1576 C 214.72 80.1576 212.873 77.2348 212.873 74.011 C 212.873 70.79 214.72 67.87 218.44 67.87"/><path d="M 226.541 68.1165 L 234.025 68.1165 L 234.025 69.0722 L 227.664 69.0722 L 227.664 73.3353 L 233.312 73.3353 L 233.312 74.2937 L 227.664 74.2937 L 227.664 79.911 L 226.541 79.911 Z"/><path d="M 250.268 71.6841 C 249.87 69.8674 248.371 68.8253 246.651 68.8253 C 243.531 68.8253 242.207 71.4361 242.207 74.0135 C 242.207 76.5908 243.531 79.2016 246.651 79.2016 C 248.83 79.2016 250.218 77.5131 250.435 75.4178 L 251.558 75.4178 C 251.24 78.3072 249.41 80.1573 246.651 80.1573 C 242.934 80.1573 241.084 77.2316 241.084 74.0135 C 241.084 70.7925 242.934 67.8669 246.651 67.8669 C 248.88 67.8669 251.093 69.2043 251.391 71.6841 Z"/><path d="M 258.991 79.1991 C 262.095 79.1991 263.418 76.5883 263.418 74.011 C 263.418 71.4364 262.095 68.8257 258.991 68.8257 C 255.87 68.8257 254.55 71.4364 254.55 74.011 C 254.55 76.5883 255.87 79.1991 258.991 79.1991 M 258.991 67.87 C 262.691 67.87 264.539 70.79 264.539 74.011 C 264.539 77.2348 262.691 80.1576 258.991 80.1576 C 255.274 80.1576 253.427 77.2348 253.427 74.011 C 253.427 70.79 255.274 67.87 258.991 67.87"/><path d="M 267.093 68.1165 L 268.216 68.1165 L 268.216 78.9525 L 274.822 78.9525 L 274.822 79.911 L 267.093 79.911 Z"/><path d="M 281.092 79.1991 C 284.196 79.1991 285.517 76.5883 285.517 74.011 C 285.517 71.4364 284.196 68.8257 281.092 68.8257 C 277.971 68.8257 276.648 71.4364 276.648 74.011 C 276.648 76.5883 277.971 79.1991 281.092 79.1991 M 281.092 67.87 C 284.792 67.87 286.64 70.79 286.64 74.011 C 286.64 77.2348 284.792 80.1576 281.092 80.1576 C 277.372 80.1576 275.525 77.2348 275.525 74.011 C 275.525 70.79 277.372 67.87 281.092 67.87"/><path d="M 290.316 73.7156 L 294.509 73.7156 C 295.883 73.7156 297.053 72.8574 297.053 71.4197 C 297.053 69.9819 296.195 69.0736 294.509 69.0736 L 290.316 69.0736 Z M 289.193 68.1179 L 294.593 68.1179 C 296.543 68.1179 298.179 69.0569 298.179 71.1884 C 298.179 72.6763 297.404 73.8967 295.883 74.1948 L 295.883 74.2283 C 297.418 74.4261 297.864 75.4849 297.95 76.8864 C 297.995 77.6972 297.995 79.3161 298.491 79.9096 L 297.254 79.9096 C 296.972 79.447 296.972 78.5721 296.939 78.0762 C 296.839 76.4239 296.711 74.5905 294.576 74.6741 L 290.316 74.6741 L 290.316 79.9096 L 289.193 79.9096 Z"/><path d="M 303.044 75.2848 L 307.686 75.2848 L 305.407 69.2385 Z M 304.83 68.1156 L 306.084 68.1156 L 310.706 79.9101 L 309.503 79.9101 L 308.068 76.2433 L 302.696 76.2433 L 301.28 79.9101 L 300.074 79.9101 Z"/><path d="M 313.734 78.9517 L 316.13 78.9517 C 319.516 78.9684 320.987 77.5307 320.987 74.0116 C 320.987 70.4952 319.516 69.0575 316.13 69.0714 L 313.734 69.0714 Z M 312.611 68.1157 L 316.69 68.1157 C 320.243 68.1993 322.11 70.147 322.11 74.0116 C 322.11 77.879 320.243 79.8266 316.69 79.9102 L 312.611 79.9102 Z"/><path d="M 329.678 79.1991 C 332.782 79.1991 334.105 76.5883 334.105 74.011 C 334.105 71.4364 332.782 68.8257 329.678 68.8257 C 326.557 68.8257 325.234 71.4364 325.234 74.011 C 325.234 76.5883 326.557 79.1991 329.678 79.1991 M 329.678 67.87 C 333.378 67.87 335.226 70.79 335.226 74.011 C 335.226 77.2348 333.378 80.1576 329.678 80.1576 C 325.958 80.1576 324.111 77.2348 324.111 74.011 C 324.111 70.79 325.958 67.87 329.678 67.87"/><path d="M 112.176 95.1609 L 115.23 95.1609 L 113.745 90.8338 L 113.714 90.8338 Z M 112.424 87.9276 L 115.085 87.9276 L 119.496 99.7193 L 116.801 99.7193 L 115.91 97.0918 L 111.499 97.0918 L 110.574 99.7193 L 107.949 99.7193 Z"/><path d="M 121.433 87.9269 L 124.01 87.9269 L 128.934 95.8372 L 128.964 95.8372 L 128.964 87.9269 L 131.394 87.9269 L 131.394 99.7214 L 128.8 99.7214 L 123.893 91.8249 L 123.86 91.8249 L 123.86 99.7214 L 121.433 99.7214 Z"/><path d="M 136.354 95.8063 C 136.354 97.375 137.574 97.9852 138.965 97.9852 C 139.87 97.9852 141.261 97.7205 141.261 96.514 C 141.261 95.2435 139.491 95.0289 137.758 94.5664 C 136.006 94.1039 134.239 93.4268 134.239 91.2145 C 134.239 88.8015 136.518 87.6452 138.65 87.6452 C 141.11 87.6452 143.373 88.7207 143.373 91.4457 L 140.862 91.4457 C 140.779 90.0247 139.773 89.6597 138.533 89.6597 C 137.708 89.6597 136.752 90.008 136.752 90.9999 C 136.752 91.9055 137.31 92.0225 140.269 92.7859 C 141.127 92.9977 143.771 93.5438 143.771 96.2187 C 143.771 98.3836 142.069 99.9997 138.864 99.9997 C 136.254 99.9997 133.81 98.7152 133.841 95.8063 Z"/><path d="M 153.988 91.8907 C 153.824 90.7177 152.701 89.826 151.411 89.826 C 149.081 89.826 148.206 91.8071 148.206 93.8718 C 148.206 95.8389 149.081 97.82 151.411 97.82 C 152.999 97.82 153.888 96.7305 154.088 95.1758 L 156.599 95.1758 C 156.334 98.1181 154.303 100.002 151.411 100.002 C 147.761 100.002 145.612 97.2739 145.612 93.8718 C 145.612 90.3694 147.761 87.6471 151.411 87.6471 C 154.005 87.6471 156.184 89.1629 156.498 91.8907 Z"/><path d="M 159.185 87.9269 L 161.779 87.9269 L 161.779 92.4519 L 166.552 92.4519 L 166.552 87.9269 L 169.146 87.9269 L 169.146 99.7214 L 166.552 99.7214 L 166.552 94.6308 L 161.779 94.6308 L 161.779 99.7214 L 159.185 99.7214 Z"/><path d="M 182.317 95.2602 C 182.317 98.4477 180.436 100.002 177.277 100.002 C 174.109 100.002 172.256 98.4645 172.256 95.2602 L 172.256 87.9266 L 174.85 87.9266 L 174.85 95.2602 C 174.85 96.5503 175.181 97.8208 177.277 97.8208 C 179.129 97.8208 179.723 97.0128 179.723 95.2602 L 179.723 87.9266 L 182.317 87.9266 Z"/><path d="M 187.931 90.1069 L 184.395 90.1069 L 184.395 87.928 L 194.061 87.928 L 194.061 90.1069 L 190.525 90.1069 L 190.525 99.7197 L 187.931 99.7197 Z"/><path d="M 195.535 97.6718 L 201.863 90.107 L 196.031 90.107 L 196.031 87.9253 L 205.315 87.9253 L 205.315 89.976 L 198.987 97.5408 L 205.479 97.5408 L 205.479 99.7197 L 195.535 99.7197 Z"/><path d="M 213.234 87.9269 L 216.884 87.9269 L 219.643 96.0351 L 219.679 96.0351 L 222.284 87.9269 L 225.934 87.9269 L 225.934 99.7214 L 223.507 99.7214 L 223.507 91.3624 L 223.474 91.3624 L 220.584 99.7214 L 218.584 99.7214 L 215.694 91.446 L 215.661 91.446 L 215.661 99.7214 L 213.234 99.7214 Z"/><path d="M 229.111 87.9269 L 237.93 87.9269 L 237.93 90.1058 L 231.705 90.1058 L 231.705 92.6358 L 237.42 92.6358 L 237.42 94.6475 L 231.705 94.6475 L 231.705 97.5397 L 238.061 97.5397 L 238.061 99.7214 L 229.111 99.7214 Z"/><path d="M 243.376 97.5403 L 245.689 97.5403 C 247.193 97.5403 248.628 96.6152 248.628 94.0045 C 248.628 91.6278 247.801 90.1064 245.226 90.1064 L 243.376 90.1064 Z M 240.782 87.9275 L 245.87 87.9275 C 248.924 87.9275 251.222 89.8445 251.222 93.7565 C 251.222 97.1753 249.472 99.7192 245.87 99.7192 L 240.782 99.7192 Z"/><path d="M 253.9 87.9298 L 256.494 87.9298 L 256.494 99.7242 L 253.9 99.7242 Z"/><path d="M 267.486 91.8907 C 267.322 90.7177 266.199 89.826 264.909 89.826 C 262.579 89.826 261.704 91.8071 261.704 93.8718 C 261.704 95.8389 262.579 97.82 264.909 97.82 C 266.497 97.82 267.386 96.7305 267.584 95.1758 L 270.097 95.1758 C 269.832 98.1181 267.801 100.002 264.909 100.002 C 261.259 100.002 259.11 97.2739 259.11 93.8718 C 259.11 90.3694 261.259 87.6471 264.909 87.6471 C 267.503 87.6471 269.682 89.1629 269.996 91.8907 Z"/><path d="M 275.337 95.1609 L 278.391 95.1609 L 276.906 90.8338 L 276.872 90.8338 Z M 275.585 87.9276 L 278.246 87.9276 L 282.654 99.7193 L 279.962 99.7193 L 279.071 97.0918 L 274.66 97.0918 L 273.732 99.7193 L 271.11 99.7193 Z"/><path d="M 284.593 87.9269 L 287.187 87.9269 L 287.187 97.5397 L 292.935 97.5397 L 292.935 99.7214 L 284.593 99.7214 Z"/><path d="M 308.485 91.8907 C 308.321 90.7177 307.198 89.826 305.908 89.826 C 303.578 89.826 302.706 91.8071 302.706 93.8718 C 302.706 95.8389 303.578 97.82 305.908 97.82 C 307.496 97.82 308.385 96.7305 308.585 95.1758 L 311.096 95.1758 C 310.831 98.1181 308.8 100.002 305.908 100.002 C 302.258 100.002 300.112 97.2739 300.112 93.8718 C 300.112 90.3694 302.258 87.6471 305.908 87.6471 C 308.502 87.6471 310.681 89.1629 310.998 91.8907 Z"/><path d="M 316.336 95.1609 L 319.39 95.1609 L 317.905 90.8338 L 317.874 90.8338 Z M 316.584 87.9276 L 319.245 87.9276 L 323.653 99.7193 L 320.961 99.7193 L 320.07 97.0918 L 315.662 97.0918 L 314.734 99.7193 L 312.109 99.7193 Z"/><path d="M 325.593 87.9269 L 329.243 87.9269 L 332.002 96.0351 L 332.038 96.0351 L 334.643 87.9269 L 338.293 87.9269 L 338.293 99.7214 L 335.866 99.7214 L 335.866 91.3624 L 335.833 91.3624 L 332.943 99.7214 L 330.943 99.7214 L 328.053 91.446 L 328.02 91.446 L 328.02 99.7214 L 325.593 99.7214 Z"/><path d="M 344.063 93.4764 L 346.078 93.4764 C 347.284 93.4764 348.357 93.2117 348.357 91.7071 C 348.357 90.2053 347.284 89.9434 346.078 89.9434 L 344.063 89.9434 Z M 341.469 87.9289 L 346.788 87.9289 C 349.728 87.9289 350.867 89.7929 350.867 91.7071 C 350.867 93.6241 349.728 95.4909 346.788 95.4909 L 344.063 95.4909 L 344.063 99.7205 L 341.469 99.7205 Z"/><path d="M 363.138 95.2602 C 363.138 98.4477 361.257 100.002 358.098 100.002 C 354.93 100.002 353.079 98.4645 353.079 95.2602 L 353.079 87.9266 L 355.671 87.9266 L 355.671 95.2602 C 355.671 96.5503 356.002 97.8208 358.098 97.8208 C 359.95 97.8208 360.544 97.0128 360.544 95.2602 L 360.544 87.9266 L 363.138 87.9266 Z"/><path d="M 367.999 95.8063 C 367.999 97.375 369.222 97.9852 370.61 97.9852 C 371.518 97.9852 372.906 97.7205 372.906 96.514 C 372.906 95.2435 371.136 95.0289 369.403 94.5664 C 367.651 94.1039 365.884 93.4268 365.884 91.2145 C 365.884 88.8015 368.163 87.6452 370.295 87.6452 C 372.758 87.6452 375.021 88.7207 375.021 91.4457 L 372.507 91.4457 C 372.426 90.0247 371.418 89.6597 370.178 89.6597 C 369.353 89.6597 368.397 90.008 368.397 90.9999 C 368.397 91.9055 368.955 92.0225 371.914 92.7859 C 372.775 92.9977 375.416 93.5438 375.416 96.2187 C 375.416 98.3836 373.714 99.9997 370.512 99.9997 C 367.899 99.9997 365.455 98.7152 365.489 95.8063 Z"/></svg>