<svg xmlns="http://www.w3.org/2000/svg" version="1.1" id="Layer_1" x="0px" y="0px" width="241px" height="80px" viewBox="0 0 241 80" enable-background="new 0 0 241 80" xml:space="preserve">
  <path id="primary" fill-rule="evenodd" clip-rule="evenodd" fill="#A53722" d="M240.3,46c-0.1,0-0.2,0-0.2,0.1c-2,1.8-5.2,4-7.3,4  c-1.5,0-2.5-1.2-2.8-4.7l-1-11.5c-0.2-3-1.1-12.1-9.9-12.1c-5.6,0-10.2,3.3-15.5,8.1v-0.6c0-1-0.1-1.6-0.4-2.2  c-2-2.7-6.6-4.3-9.9-4.2c-3,0.1-2.9,1.8-2.9,3.4v21.8c-6.7,3.1-19.3,6-22.6,1.8c-2-2.6-0.8-8.4,7.7-8.4c0.3,0,0.5-0.2,0.5-0.4v-2.4  c0-0.2-0.3-0.5-0.5-0.5c-6,0-8.3-3.9-7.8-7.1c0.5-3.2,3.2-5,7.2-5c0.9,0,1.5,0.1,2.1,0.4c-0.3,0.6-0.5,1.3-0.5,2.1  c0,2.8,2.3,5.1,5.2,5.1c2.9,0,5.1-2.2,5.1-5.1c0-1.7-1.7-7.6-13.6-7.6c-6,0-13.5,1.8-16.5,7c-2.8,4.7-1.7,10.3,5.4,12  c-5.7,0.8-9,5.5-8.2,10c-1.9,1-3.9,1.8-5.4,1.8c-0.1,0-0.3,0-0.4,0c2.7-3.9,3.6-8.4,3.8-11.8c0.6-10.6-3.5-18.4-12.6-18.4  c-4.4,0-11.2,3.8-14.8,8.4v-0.9c0-1-0.1-1.6-0.5-2.2c-2-2.7-6.8-4.3-10.1-4.2c-2.8,0.1-2.7,1.8-2.7,3.4v25.8c-1.7-0.2-3.5-1.5-3.5-3  h0c-0.6-7.4-12.1-11-16.2-13.2c-3.5-1.9-6.5-3-6.5-5.7c0-2.4,5.3-4.2,11.3-2.1c-1.2,2.3,0,6,4.2,6c4.4,0,5.3-3.4,5.3-4.8  c-0.1-2-1.6-3.3-2.5-3.9c-2.8-1.8-7.5-3.9-15.7-3.9c-8,0-16,3-16,11.5c0,7.7,12.8,11.5,17,13.7c2.8,1.5,4.1,2.6,4.1,4  c0,1.1-0.7,1.9-1.7,2.5c-1-1.1-2.4-2.7-3.4-3.9C85.1,46,81,43.3,77,43.4c-0.4,0-0.8,0-1.3,0l-11.9,0c-0.9-7-1.4-14.6-1.4-21.3V4.4  c0-2.2-7.1-4.4-10-4.4C47,0,43.2,1.1,41.8,2.2c-1.4,1.1,0.3,3.2,0.3,4.2c0,14.6-7.7,37.2-7.7,37.2c-8.9,0.1-12.4-0.2-12.4,3.4  c0,3-1.1,4,2.5,4c2.3,0,5.1-0.2,7.7-0.3c-2.3,7.2-7.2,15-15.4,15c-9.3,0-5.5-6.4-11.8-6.4c-2.9,0-5,2.1-5,4.3c0,7.4,7.8,11,14.5,11  c15.9,0,23.2-11.3,26.9-24.3c2.2-0.1,5.7-0.2,9.9-0.2c0.5,5.3,1.6,17.2,1.6,17.9c0,4.1,3.5,4.4,7.3,4.4c5.9,0,10.2-3,10.2-3  c0.3-0.4,0-0.8,0-0.8c-2.2-2.2-4.2-9.5-5.7-18.4l4.1,0c0.3,0.7,1.5,2.2,1.5,2.2c2.8,3.5,10,7.8,18.7,7.8c6.2,0,12.9-1.9,16.4-5.5  c1.4,0.5,2.9,0.8,4.4,0.8c0.5,0,1,0,1.5-0.1v21.2c0,1.6-0.1,3.3,2.7,3.4c3.2,0.1,8.1-1.6,10.1-4.2c0.4-0.5,0.5-1.1,0.5-2.2V59.2  c1.2,0.1,4.9,0.2,6,0.2c6.4,0,10.8-1.6,14-4.1c0.7,0.1,1.5,0.2,2.2,0.2c3.4,0.1,6.3-1.3,8.2-2.9c0.3,0.5,0.7,1,1.2,1.5  c3.2,3.3,9.3,4.2,13.9,4.2c7.8,0,15.1-2.8,20.4-6.2v6.2c0,0.8,0.6,1.4,1.3,1.4h0.1l10.5-1c0.7-0.1,1.2-0.7,1.2-1.5V35.3  c2.7-1.9,12.1-5.3,12.5-0.1l1,12.6c0.3,3.3,0.6,11.2,6.3,12c6.1,0.8,12.3-3.1,17.2-9.3c0.1-0.1,0.1-0.2,0.1-0.3v-3.8  C240.8,46.2,240.6,46,240.3,46L240.3,46z M42.7,43.5c0,0,4.9-20.6,5.5-22.7c0.3,2.6,2.4,22.7,2.4,22.7L42.7,43.5z M85.9,53.7  c-2,0-5.3-0.9-5.3-0.9c-8.7-2.9-4.1-4.2-2.5-4.2c2.2,0,2.5,0.4,4.3,1.3c0,0,2.8,2.7,3.9,3.7C85.8,53.7,86.4,53.7,85.9,53.7  L85.9,53.7z M128.8,52.3c-0.6,0.2-3.7,0.2-4.2,0V35c3.1-3.3,9.1-5.2,10.9-0.3C136.7,38.1,137.1,49.8,128.8,52.3L128.8,52.3z"/>
  <path id="secondary" fill-rule="evenodd" clip-rule="evenodd" fill="#1F141F" d="M234.8,68.1h-1.5v-2.6h1.5c1.1,0,1.5,0.3,1.5,1.3  C236.3,67.8,235.9,68.1,234.8,68.1L234.8,68.1z M238,69.8c1.3-0.5,2-1.7,2-3.2c0-2.6-1.8-3.8-5.2-3.8h-5.2v11.5h3.6v-3.8h1.5  l1.9,3.8h4.2L238,69.8z M146.1,71.6c-1.7,0-2.3-0.7-2.3-3.1c0-2.3,0.6-3,2.3-3c1.8,0,2.3,0.7,2.3,3  C148.4,70.8,147.8,71.6,146.1,71.6L146.1,71.6z M146.1,62.6c-4.3,0-6.1,2.2-6.1,5.9c0,3.8,1.8,6,6.1,6c4.3,0,6.1-2.2,6.1-6  C152.2,64.8,150.4,62.6,146.1,62.6L146.1,62.6z M221.4,71.4v-1.7h4.7v-2.5h-4.7v-1.5h5.7l-0.1-2.9h-9.2v11.5h9.4l0.1-2.8H221.4z   M215,74.3V62.8h-3.2v4.7l0,1.2l0,0l-0.8-1l-4.2-5h-2.9v11.5h3.2v-5.1l0-1.2l0,0l0.8,1l4.6,5.4H215z M195.9,68.1h-1.5v-2.6h1.5  c1.1,0,1.5,0.3,1.5,1.3C197.4,67.8,197,68.1,195.9,68.1L195.9,68.1z M199.1,69.8c1.3-0.5,2-1.7,2-3.2c0-2.6-1.8-3.8-5.2-3.8h-5.2  v11.5h3.6v-3.8h1.5l1.9,3.8h4.2L199.1,69.8z M188.1,62.8h-3.6v7c0,1.2-0.5,1.7-1.9,1.7c-1.4,0-2-0.6-2-1.7v-7h-3.6v7.1  c0,3.1,1.9,4.7,5.5,4.7c3.7,0,5.5-1.6,5.5-4.7V62.8z M168.8,71.6c-1.7,0-2.3-0.7-2.3-3.1c0-2.3,0.6-3,2.3-3c1.8,0,2.3,0.7,2.3,3  C171.1,70.8,170.5,71.6,168.8,71.6L168.8,71.6z M168.8,62.6c-4.3,0-6.1,2.2-6.1,5.9c0,3.8,1.8,6,6.1,6c4.3,0,6.1-2.2,6.1-6  C174.8,64.8,173.1,62.6,168.8,62.6L168.8,62.6z M161,62.8h-3.6v6.7c0,1.5-0.9,2.1-2.6,2.1c-0.8,0-1.5-0.2-1.9-0.4l-0.2,2.7  c0.7,0.3,1.5,0.5,2.6,0.5c3.5,0,5.7-1.4,5.7-5V62.8z M133.2,74.5c-1.5,0-3-0.3-4.2-0.9l0.4-2.9c1.3,0.6,2.5,0.9,3.9,0.9  c1.2,0,1.6-0.3,1.6-0.8c0-1.3-5.9-0.5-5.9-4.5c0-2,1.4-3.8,5-3.8c1.3,0,2.8,0.2,3.9,0.6l-0.4,2.8c-1.2-0.3-2.4-0.5-3.4-0.5  c-1.4,0-1.7,0.3-1.7,0.7c0,1.3,5.9,0.4,5.9,4.5C138.3,73,136.3,74.5,133.2,74.5L133.2,74.5z"/>
</svg>
